<?xml version="1.0" encoding="iso-8859-1"?>
<!-- Generator: Adobe Illustrator 19.0.0, SVG Export Plug-In . SVG Version: 6.00 Build 0)  -->
<svg version="1.1" id="Capa_1" xmlns="http://www.w3.org/2000/svg" xmlns:xlink="http://www.w3.org/1999/xlink" x="0px" y="0px"
	 viewBox="0 0 508 508" style="enable-background:new 0 0 508 508;" xml:space="preserve">
<path style="fill:#40596B;" d="M487.2,72.9H20.8C9.3,72.9,0,82.2,0,93.7v286.1h508V93.7C508,82.2,498.7,72.9,487.2,72.9z"/>
<path style="fill:#F2F2F2;" d="M0,379.8v35.6c0,11.5,9.3,20.8,20.8,20.8h471.6c8.6,0,15.5-7,15.5-15.5v-40.9H0z"/>
<g>
	<circle style="fill:#CDD6E0;" cx="254" cy="408" r="11.1"/>
	<polygon style="fill:#CDD6E0;" points="354.5,477.7 153.5,477.7 172.8,450.8 180.3,436.3 327.7,436.3 335.2,450.8 	"/>
</g>
<path style="fill:#F2F2F2;" d="M407.8,507.2H100.2v-26.7c0-1.5,1.2-2.8,2.8-2.8h302c1.5,0,2.8,1.2,2.8,2.8V507.2z"/>
<rect x="31" y="102.1" style="fill:#84DBFF;" width="446" height="255.3"/>
<polygon style="fill:#ACB3BA;" points="335.2,450.8 172.8,450.8 180.3,436.3 327.7,436.3 "/>
<path style="fill:#F1543F;" d="M197.7,199.8c0-31.1,25.2-56.3,56.3-56.3s56.3,25.2,56.3,56.3c0,5-0.7,9.8-1.9,14.4
	c12.5-13.3,20.2-31.2,20.2-50.9c0-41.2-33.4-74.6-74.6-74.6s-74.6,33.4-74.6,74.6c0,19.7,7.7,37.6,20.2,50.9
	C198.4,209.6,197.7,204.8,197.7,199.8z"/>
<path style="fill:#FFFFFF;" d="M424.6,357.3c9.2-10.8,14.8-24.7,14.8-40c0-34.1-27.7-61.8-61.8-61.8c-9.8,0-19.1,2.4-27.4,6.5
	c-11.3-14.8-29.1-24.4-49.1-24.4c-18.1,0-34.3,7.8-45.6,20.2c-5.2-1.4-10.6-2.2-16.2-2.2c-2.6,0-5.2,0.2-7.8,0.5
	c-11.3-12.8-27.8-20.9-46.3-20.9c-29,0-53.2,20-59.9,46.9c-31.8,2.6-56.8,29.1-56.8,61.5c0,4.7,0.6,9.3,1.6,13.8h354.5V357.3z"/>
<path style="fill:#FF7058;" d="M277.5,193.2h-47c-30.7-42.9-34.9-99-12.3-145.4c6.7-14,15.9-27.1,27.5-38.7l8.4-8.3l8.3,8.3
	c11.6,11.6,20.8,24.7,27.5,38.7C312.3,94.2,308.2,150.3,277.5,193.2z"/>
<polygon style="fill:#FFFFFF;" points="298.1,280.9 209.9,280.9 230.8,193.2 277.2,193.2 "/>
<path style="fill:#40596B;" d="M289.8,47.8h-71.5c6.7-14,15.9-27.1,27.5-38.7l8.4-8.3l8.3,8.3C273.9,20.6,283.1,33.8,289.8,47.8z"/>
<circle style="fill:#FFD15C;" cx="254" cy="115.7" r="27"/>
<g>
</g>
<g>
</g>
<g>
</g>
<g>
</g>
<g>
</g>
<g>
</g>
<g>
</g>
<g>
</g>
<g>
</g>
<g>
</g>
<g>
</g>
<g>
</g>
<g>
</g>
<g>
</g>
<g>
</g>
</svg>
